<?xml version="1.0" encoding="UTF-8" standalone="no"?>
<svg width="67px" height="67px" viewBox="0 0 67 67" version="1.1" xmlns="http://www.w3.org/2000/svg" xmlns:xlink="http://www.w3.org/1999/xlink">
    <!-- Generator: Sketch 50.2 (55047) - http://www.bohemiancoding.com/sketch -->
    <title>acess</title>
    <desc>Created with Sketch.</desc>
    <defs></defs>
    <g id="Welcome" stroke="none" stroke-width="1" fill="none" fill-rule="evenodd">
        <g id="Desktop-Copy-5" transform="translate(-960.000000, -550.000000)">
            <g id="simbolos" transform="translate(732.000000, 194.000000)">
                <g id="acess" transform="translate(228.341346, 355.601990)">
                    <g>
                        <path d="M0.404993617,32.9545495 C0.739280851,14.7933179 15.8855574,0.338244211 34.2421319,0.664781053 C52.5901532,0.995549474 67.2018553,15.9823916 66.8689936,34.1457389 C66.5368447,52.3034442 51.3884298,66.7585179 33.0382702,66.4298653 C14.683834,66.1026232 0.0742702128,51.1122547 0.404993617,32.9545495" id="Fill-13" fill="#FFFFFF"></path>
                        <path d="M19.2924362,39.3031874 C19.3116809,39.1388611 19.3309255,38.9745347 19.3480319,38.8116189 C19.5903723,36.3121663 20.5077021,34.0701347 22.0722234,32.0996295 C23.0508511,30.8710611 24.2197872,29.8561874 25.5576489,29.0317347 C25.594,29.0162189 25.6246489,28.9957663 25.670266,28.9767242 C25.6759681,29.0126926 25.6873723,29.0352611 25.685234,29.0620611 C25.7201596,29.9126084 25.7543723,30.7673874 25.7850213,31.6235768 C25.7928617,31.7596926 25.7871596,31.8993347 25.804266,32.0375663 C25.8135319,32.1285453 25.7793191,32.1835558 25.7165957,32.2477347 C25.3281383,32.6292821 24.9254255,33.0058926 24.5583511,33.4100084 C23.4008191,34.7091032 22.6517021,36.2141347 22.2710851,37.9039453 C22.085766,38.6903137 22.055117,39.4865558 22.0593936,40.2898505 C22.0665213,42.0882716 22.5633191,43.7519874 23.4842128,45.2929874 C24.2390319,46.5575242 25.2369043,47.60484 26.4500319,48.4553874 C27.649617,49.29324 28.968234,49.8532189 30.4108723,50.1212189 C31.2761702,50.2841347 32.147883,50.3461979 33.0224468,50.2911874 C34.763734,50.1875137 36.3738723,49.6881874 37.8492979,48.7642926 C40.0367766,47.3876189 41.5086383,45.4664821 42.2819894,43.0199242 C42.331883,42.86124 42.3703723,42.7025558 42.4138511,42.5452821 C42.4295319,42.4980295 42.4423617,42.4507768 42.4673085,42.3830716 C42.5264681,42.4811032 42.5742234,42.5586821 42.6205532,42.6404926 C43.1422979,43.5799032 43.6654681,44.5179032 44.1929149,45.4551979 C44.2314043,45.5236084 44.2328298,45.5743874 44.2007553,45.6442084 C43.8507872,46.3833242 43.4288298,47.0794189 42.9391596,47.7374295 C41.5792021,49.5563032 39.8571596,50.9435558 37.778734,51.8907242 C36.6874894,52.3808821 35.5541915,52.7229347 34.3738511,52.8893768 C33.8292979,52.9606084 33.2826064,52.9852926 32.7323511,53.0325453 C32.6596489,53.0388926 32.5869468,53.0459453 32.5149574,53.0515874 C32.2740426,53.0480611 32.0331277,53.0424189 31.7922128,53.0388926 C31.7273511,53.0290189 31.6624894,53.0212611 31.5976277,53.0156189 C31.2269894,52.9740084 30.8599149,52.95144 30.4871383,52.9006611 C29.5755106,52.7793558 28.6895426,52.5529663 27.8335106,52.2292505 C25.517734,51.3709453 23.584,49.9773453 22.0650957,48.0547979 C20.3872447,45.9277242 19.475617,43.5114926 19.3116809,40.8159768 C19.3002766,40.6417768 19.2888723,40.4661663 19.2753298,40.2940821 C19.2810319,39.9590821 19.286734,39.6325453 19.2924362,39.3031874" id="Fill-15" fill="#D6A229"></path>
                        <path d="M34.2379266,27.4360063 C34.6221074,27.4451747 34.9984479,27.4472905 35.3655223,27.4585747 C37.1075223,27.4966589 38.8466713,27.5305116 40.589384,27.5777642 C40.8417032,27.5812905 41.1032883,27.5643642 41.3420649,27.6779116 C41.9593202,27.9825853 42.30715,28.46428 42.2993096,29.1547326 C42.3014479,29.8197958 41.8274585,30.4136274 41.1453415,30.6174484 C41.0077777,30.6611747 40.854533,30.6802168 40.7134053,30.6781011 C38.6499479,30.6520063 36.5921926,30.6195642 34.5322989,30.5892379 C34.4824053,30.5878274 34.4332245,30.5878274 34.3640862,30.5857116 C34.3776287,31.4538905 34.3833309,32.3114905 34.3947351,33.1888379 C34.4595968,33.1888379 34.5094904,33.1909537 34.5586713,33.1930695 C36.7525649,33.2360905 38.9443202,33.2741747 41.1396394,33.3171958 C41.7911074,33.3327116 42.4404372,33.3665642 43.0883415,33.36868 C43.6941926,33.3707958 44.1717457,33.6253958 44.5537883,34.0549011 C44.7277032,34.2495537 44.8581394,34.4844063 44.9900011,34.7164379 C46.6215223,37.6129537 48.2473415,40.5129958 49.8674585,43.4151537 C50.1276181,43.8749853 50.3813628,44.3376379 50.6130117,44.8045221 C50.9665436,45.5309432 50.8724585,46.2319747 50.3949053,46.8638905 C49.7170649,47.7694484 48.4305223,47.8956905 47.5003628,47.1756168 C47.3093415,47.0246905 47.1468309,46.8427326 47.0299372,46.6290379 C45.5630649,44.0068695 44.0897777,41.3924589 42.6243309,38.7717011 C42.5780011,38.6870695 42.532384,38.6546274 42.4276074,38.6546274 C39.7198096,38.5982063 37.0084479,38.5375537 34.3013628,38.4825432 C33.173767,38.4564484 32.0461713,38.4395221 30.9207138,38.3979116 C30.1794372,38.3711116 29.5322457,38.0784274 28.9663096,37.6150695 C28.3070011,37.0776589 27.9099904,36.3879116 27.7759904,35.5599326 C27.7303734,35.2404484 27.7282351,34.9153221 27.7111287,34.5916063 C27.6804798,33.8658905 27.6498309,33.1394695 27.6177564,32.4102274 C27.588533,31.69368 27.5621606,30.9785432 27.5293734,30.2641116 C27.5044266,29.5532063 27.4680755,28.8465326 27.4395649,28.1377432 C27.4146181,27.5756484 27.3896713,27.0163747 27.3747032,26.4585116 C27.3575968,25.8879537 27.3383521,25.3145747 27.3290862,24.7454274 C27.3020011,23.3539432 27.9306606,22.3235537 29.1402245,21.6429747 C29.6462883,21.3615747 30.2022457,21.2388589 30.795267,21.2804695 C31.2129479,21.30868 31.6263521,21.3573432 32.0140968,21.5350695 C33.0419053,22.0118274 33.7083415,22.7904379 33.9685011,23.8892379 C34.0390649,24.1805116 34.0526074,24.4957642 34.0739904,24.7983221 C34.1196074,25.4605642 34.1538202,26.1235116 34.1944479,26.7815221 C34.2051394,26.9952168 34.2208202,27.2032695 34.2379266,27.4360063" id="Fill-17" fill="#D6A229"></path>
                        <path d="M30.6229202,13.7346474 C32.6293564,13.7494579 34.0392074,15.3793211 34.0563138,17.1192053 C34.0812606,19.1835105 32.3520904,20.6603316 30.5309734,20.6293 C28.5551862,20.5898053 27.0213138,19.0001421 27.0883138,17.0261105 C27.1567394,15.1338895 28.8117819,13.6669421 30.6229202,13.7346474" id="Fill-19" fill="#D6A229"></path>
                    </g>
                </g>
            </g>
        </g>
    </g>
</svg>