<?xml version="1.0" encoding="UTF-8" standalone="no"?>
<svg width="66px" height="67px" viewBox="0 0 66 67" version="1.1" xmlns="http://www.w3.org/2000/svg" xmlns:xlink="http://www.w3.org/1999/xlink">
    <!-- Generator: Sketch 50.2 (55047) - http://www.bohemiancoding.com/sketch -->
    <title>descartavel</title>
    <desc>Created with Sketch.</desc>
    <defs></defs>
    <g id="Welcome" stroke="none" stroke-width="1" fill="none" fill-rule="evenodd">
        <g id="Desktop-Copy-5" transform="translate(-736.000000, -423.000000)">
            <g id="simbolos" transform="translate(732.000000, 194.000000)">
                <g id="descartavel" transform="translate(3.545673, 229.260365)">
                    <g>
                        <path d="M0.642001053,33.1317851 C0.819727368,14.7737851 15.6852642,0.0380617021 33.8486116,0.216253191 C52.0098432,0.395157447 66.5918642,15.4195511 66.4162537,33.7754128 C66.2385274,52.1298489 51.3708747,66.8655723 33.2117589,66.6859553 C15.0462958,66.5084766 0.467801053,51.484083 0.642001053,33.1317851" id="Fill-21" fill="#FFFFFF"></path>
                        <path d="M43.0955989,40.0046309 C42.2528095,39.9967904 41.4883042,39.9896628 40.5961463,39.9818223 C40.5940305,40.2512479 40.5883884,40.5242372 40.5869779,40.7922372 C40.5545358,44.1073117 40.5284411,47.4216734 40.4811884,50.7296202 C40.4656726,51.9905032 39.6602621,52.7545883 38.4958726,52.6897266 C37.6037147,52.6441096 36.8737674,51.9178011 36.8053568,51.0125883 C36.7905463,50.7524287 36.7997147,50.4887053 36.8053568,50.2292585 C36.8737674,42.9412266 36.9435884,35.6539074 37.0134095,28.3687266 C37.0155253,28.1107053 37.0176411,27.8548223 37.0232832,27.4072053 C36.8222832,27.7336521 36.7108516,27.8947372 36.6219884,28.0686521 C36.0739989,29.1670245 35.5351779,30.2639713 34.9942411,31.3623436 C34.6747568,32.0273543 34.1585042,32.3409713 33.4193884,32.329567 C31.6421253,32.3003436 29.8648621,32.2967798 28.0840726,32.2704074 C27.3957358,32.262567 26.9478937,31.8213649 26.9500095,31.190567 C26.9556516,30.5733117 27.4056095,30.1527798 28.1221568,30.149216 C29.5968621,30.1549181 31.0750937,30.1584819 32.5476832,30.2048117 C33.0279674,30.216216 33.2889147,30.0843543 33.5026095,29.6196309 C34.4518937,27.6196096 35.4597147,25.6459606 36.4160516,23.653067 C36.8265147,22.7970351 37.4161147,22.3822053 38.3971358,22.4028755 C41.4657358,22.4755777 44.53222,22.4741521 47.5994095,22.5119287 C49.3399989,22.5311734 50.5467042,23.6487904 50.5558726,25.4086096 C50.5749147,28.9360883 50.5142621,32.4592904 50.4726516,35.9860564 C50.4613674,36.7565564 50.0226937,37.1998968 49.3801989,37.1863543 C48.7447568,37.1713862 48.3667358,36.7294713 48.3723779,35.9119287 C48.3815463,33.2846734 48.4097568,30.6595564 48.4365568,28.0301628 C48.4386726,27.7799819 48.4400832,27.5312266 48.4443147,27.2411309 C47.9315884,27.2354287 47.4971463,27.2311521 46.9618516,27.2275883 C46.9597358,27.5162585 46.9562095,27.7913862 46.9526832,28.06295 C46.8807463,35.4949606 46.8179779,42.9241202 46.7255884,50.3554181 C46.7220621,50.8956947 46.6028726,51.5051096 46.3376937,51.9655564 C45.9088937,52.7111096 45.0089779,52.9463223 44.2451779,52.6747585 C43.4588095,52.3996309 42.9862832,51.7004074 42.9933358,50.7374606 C43.01802,47.4943755 43.0539884,44.2562798 43.0864305,41.0096309 C43.0878411,40.6867479 43.0920726,40.3660032 43.0955989,40.0046309" id="Fill-23" fill="#D6A229"></path>
                        <path d="M43.0011642,12.8305713 C44.9032589,12.8690606 46.5042063,14.5233904 46.4950379,16.4435819 C46.4816379,18.4649862 44.8482484,20.085816 42.8615221,20.0473266 C40.8606905,20.0052734 39.3408484,18.3694755 39.3789326,16.3024543 C39.4205432,14.3950926 41.0913116,12.7920819 43.0011642,12.8305713" id="Fill-25" fill="#D6A229"></path>
                        <path d="M24.9835242,32.8529511 C25.8517032,33.7524617 26.7643137,34.7025787 27.6832716,35.651983 C26.79464,36.5023128 25.8517032,37.3946957 24.9891663,38.2165149 C24.1477874,37.3448021 23.2154295,36.3747277 22.3253874,35.4573979 C23.13644,34.6626638 24.0836084,33.7317915 24.9835242,32.8529511" id="Fill-27" fill="#D6A229"></path>
                        <path d="M17.1073568,40.6104106 C17.1094726,40.3851766 17.1073568,40.1521021 17.1151147,39.9261553 C17.1320411,39.2974957 17.3415042,39.1007723 18.0072726,39.1064745 C21.6273884,39.1428255 25.2460937,39.1777511 28.8647989,39.2119638 C29.5439674,39.2198043 30.2189042,39.2212298 30.8938411,39.2347723 C31.4284305,39.2497404 31.6611674,39.4578681 31.6350726,39.9817511 C31.6082726,40.4650064 31.5518516,40.9696447 31.3924621,41.4222511 C30.8952516,42.8591872 30.2315989,44.2234213 29.2258937,45.3852298 C28.7533674,45.929783 28.2166621,46.3823894 27.4754305,46.5220915 C27.3541253,46.5413362 27.1841568,46.7594426 27.1806305,46.8848894 C27.1481884,48.2305915 27.1333779,49.5834213 27.1460726,50.9319745 C27.1481884,51.0738149 27.3357884,51.259134 27.4775463,51.344666 C28.0840726,51.6924957 28.2885989,51.9526553 28.3302095,52.5335596 C24.4540832,52.4950702 20.5744305,52.4565809 16.6799674,52.4202298 C16.6651568,51.9355489 16.9218726,51.5684745 17.2984832,51.4323362 C17.9501463,51.1942723 18.0220832,50.7352511 17.96002,50.1564851 C17.9501463,50.0588362 17.9487358,49.9554851 17.93322,49.8143574 C17.3097674,49.8086553 16.6898411,49.8008149 16.0275989,49.7951128 C16.0374726,48.9276766 16.0445253,48.1022936 16.0522832,47.2156128 C16.6764411,47.2213149 17.3097674,47.2291553 17.9205253,47.2348574 C18.0926095,46.7152511 17.9579042,46.5413362 17.4719779,46.3503149 C16.8993042,46.1229426 16.3583674,45.7009851 15.9408516,45.2384 C14.9915674,44.1970489 14.4337042,42.9012404 13.9689358,41.5811979 C13.8363463,41.227666 13.7023463,41.0537511 13.3031674,41.0615915 C12.7685779,41.0765596 12.5830937,40.8413468 12.5774516,40.2433362 C12.5718095,39.3587936 12.5887358,38.4685489 12.60002,37.5783043 C12.6247042,34.9988043 12.6663147,30.3957617 12.6924095,27.8126979 C12.7022832,26.9545277 12.8722516,26.7884532 13.7079884,26.7977191 C14.4865989,26.8034213 15.2659147,26.8076979 16.0431147,26.8191021 C16.7843463,26.8283681 17.0072095,27.0557404 16.9994516,27.8027191 C16.9712411,31.2076021 16.91482,36.6303255 16.8823779,40.0316447 C16.8802621,40.222666 16.8767358,40.4172511 16.8767358,40.6082723 C16.9521989,40.6082723 17.0318937,40.6104106 17.1073568,40.6104106" id="Fill-29" fill="#D6A229"></path>
                    </g>
                </g>
            </g>
        </g>
    </g>
</svg>