<?xml version="1.0" encoding="UTF-8" standalone="no"?>
<svg width="67px" height="68px" viewBox="0 0 67 68" version="1.1" xmlns="http://www.w3.org/2000/svg" xmlns:xlink="http://www.w3.org/1999/xlink">
    <!-- Generator: Sketch 50.2 (55047) - http://www.bohemiancoding.com/sketch -->
    <title>eco</title>
    <desc>Created with Sketch.</desc>
    <defs></defs>
    <g id="Welcome" stroke="none" stroke-width="1" fill="none" fill-rule="evenodd">
        <g id="Desktop-Copy-5" transform="translate(-775.000000, -510.000000)">
            <g id="simbolos" transform="translate(732.000000, 194.000000)">
                <g id="eco" transform="translate(43.257212, 316.563847)">
                    <g>
                        <path d="M0.161726596,32.9019894 C0.478907447,14.5496915 15.6137798,-0.0712765957 33.9639394,0.245904255 C52.3183755,0.560946809 66.9429074,15.6979574 66.6257266,34.048117 C66.310684,52.4011277 51.1758117,67.021383 32.81995,66.7042021 C14.4669394,66.3891596 -0.154028723,51.2528617 0.161726596,32.9019894" id="Fill-31" fill="#FFFFFF"></path>
                        <path d="M33.0355617,51.4493713 C32.6991362,50.9162223 32.3477426,50.3909138 32.0284234,49.8463606 C31.1096681,48.2854032 30.3527106,46.6496053 29.9749447,44.8648394 C29.6691681,43.4029564 29.6192745,41.9375096 30.1274766,40.5084138 C30.7675404,38.7086798 32.078317,37.5468713 33.7618702,36.7535628 C34.1496149,36.5703819 34.5530404,36.4192755 34.9464872,36.2553394 C34.9578915,36.2781479 34.9728596,36.3030947 34.9885404,36.329467 C34.8645191,36.4100096 34.7397851,36.4919777 34.621466,36.576084 C33.8495404,37.130616 33.0434021,37.6537862 32.3021255,38.248233 C31.3997638,38.9781053 30.8495085,39.9524564 30.570817,41.0814777 C30.5594128,41.1349351 30.5629766,41.1940947 30.5551362,41.2960202 C30.7390298,41.3323713 30.9207851,41.3893926 31.0982638,41.3950947 C32.6763277,41.4620947 34.2087745,41.2482649 35.6514128,40.5697117 C38.3299872,39.3088287 39.9465404,37.1477223 40.8432,34.3886053 C41.1425617,33.4677117 41.3357213,32.5161691 41.3834766,31.551084 C41.4298064,30.6073819 41.3015085,29.6765096 40.9479766,28.791967 C40.919466,28.7171266 40.8595936,28.6508394 40.7890298,28.5417862 C40.754817,28.6565415 40.7263064,28.7192649 40.7149021,28.7862649 C40.5067745,29.8162117 39.8531681,30.5054564 38.9800298,30.9986904 C38.4312,31.3101691 37.8445936,31.5646266 37.2622638,31.8183713 C36.4960404,32.151233 35.7148489,32.4513074 34.9464872,32.7834564 C33.427583,33.4392011 32.1930723,34.0678606 30.6264128,36.0358074 C30.6050298,35.7891904 30.601466,35.5846266 30.5729553,35.3822011 C30.3969021,34.2296585 29.8544872,33.259584 29.063317,32.422084 C28.5258915,31.8547223 27.9720723,31.3030415 27.4353596,30.7392436 C26.9364234,30.2174989 26.6135404,29.6287543 26.8031362,28.8304564 C26.5109021,28.8953181 26.3747638,29.0977436 26.2927957,29.2866266 C26.0540191,29.8219138 25.7938596,30.3629032 25.6505936,30.9281266 C25.2856574,32.3843074 25.3412532,33.8212436 26.0404766,35.1833394 C26.7532426,36.5796479 27.9264553,37.3957649 29.462466,37.8355415 C29.6898383,36.8034564 29.3056574,35.9588287 28.8430723,35.1241798 C29.2792851,35.6822755 29.745434,36.2225521 29.843083,36.9545628 C29.8751574,37.197616 29.867317,37.4798713 29.7775085,37.7072436 C29.3213383,38.8555096 29.0953915,40.0501053 28.9699447,41.2767755 C28.7176255,43.7108713 28.9392957,46.1185947 29.3633915,48.5127755 C29.3726574,48.5812011 29.3633915,48.6482011 29.3591149,48.7836266 C28.7382957,48.1478394 28.1573915,47.5512543 27.5750617,46.9532436 C25.0447426,44.3509351 22.5151362,41.7521904 19.9876681,39.1498819 C18.9805298,38.1163713 17.9733915,37.0764457 16.9705298,36.037233 C15.492966,34.5069245 14.6846894,32.6708394 14.4523277,30.5596266 C13.9626574,26.1340628 16.8365298,21.756967 21.5137,20.6621585 C26.6955085,19.4483181 31.8644872,22.9337436 32.6798915,28.1939564 C32.7354872,28.5432117 32.7639979,28.8967436 32.8830298,29.2638181 C32.9072638,29.1476372 32.9478915,29.0364457 32.9628596,28.9159883 C33.2422638,26.3386266 34.4475511,24.2708926 36.4689553,22.6792862 C38.4946362,21.0876798 40.831083,20.4554564 43.3478596,20.8417755 C47.2131894,21.4376479 49.8212,23.678584 50.9637638,27.4141904 C52.041466,30.9438074 51.0706787,34.0500415 48.4648064,36.597467 C43.5025298,41.4485521 38.4903596,46.2483181 33.5038489,51.0730309 C33.3719872,51.200616 33.284317,51.3731053 33.1731255,51.5256372 C33.1275085,51.5006904 33.0797532,51.4757436 33.0355617,51.4493713" id="Fill-33" fill="#D6A229"></path>
                    </g>
                </g>
            </g>
        </g>
    </g>
</svg>