<?xml version="1.0" encoding="UTF-8" standalone="no"?>
<svg width="67px" height="67px" viewBox="0 0 67 67" version="1.1" xmlns="http://www.w3.org/2000/svg" xmlns:xlink="http://www.w3.org/1999/xlink">
    <!-- Generator: Sketch 50.2 (55047) - http://www.bohemiancoding.com/sketch -->
    <title>familia</title>
    <desc>Created with Sketch.</desc>
    <defs></defs>
    <g id="Welcome" stroke="none" stroke-width="1" fill="none" fill-rule="evenodd">
        <g id="Desktop-Copy-5" transform="translate(-863.000000, -194.000000)">
            <g id="simbolos" transform="translate(732.000000, 194.000000)">
                <g id="familia" transform="translate(131.189904, 0.000000)">
                    <g>
                        <path d="M0.133287234,33.2558777 C0.263010638,14.900016 15.2453511,0.122239362 33.5997872,0.248398936 C51.9556489,0.375984043 66.7334255,15.35975 66.607266,33.7163245 C66.4811064,52.0707606 51.4952021,66.8478245 33.1393404,66.7202394 C14.7863298,66.5940798 0.00712765957,51.6103138 0.133287234,33.2558777" id="Fill-1" fill="#FFFFFF"></path>
                        <path d="M14.1330085,36.5881298 C13.951966,37.2189277 13.7680723,37.8568532 13.5884553,38.4947787 C13.4473277,38.9972787 13.0937957,39.2553 12.6868064,39.1526617 C12.2855191,39.0528745 12.1080404,38.7014809 12.2491681,38.1775979 C12.581317,36.9281191 12.9277213,35.6765021 13.2826787,34.4327255 C13.428083,33.9209596 13.7794766,33.6230234 14.3283064,33.6301511 C14.8343702,33.6415553 15.3425723,33.6415553 15.8358064,33.7256617 C17.3525723,33.9879596 18.623434,33.5959383 19.7410511,32.5068319 C20.2891681,31.9679809 20.7424872,31.4847255 20.9064234,30.6607681 C21.3269553,28.4996617 21.8736468,26.3635021 22.4025191,24.2273426 C22.6911894,23.0562681 23.3733064,22.5865553 24.5636255,22.7355234 C25.8437532,22.9037362 27.1167532,22.9073 28.3983064,22.7661723 C29.443934,22.651417 29.9977532,23.0298957 30.2956894,24.0577043 C30.5558489,24.9422468 30.7468702,25.846034 30.9685404,26.7362787 C30.9991894,26.8588745 31.0334021,26.9771936 31.1388915,27.1033532 C31.3947745,25.998566 31.6356894,24.8909277 31.9086787,23.7939809 C32.0476681,23.2358851 32.2201574,22.6856298 32.4168809,22.1453532 C32.5979234,21.6499809 32.9935085,21.4055021 33.5173915,21.3826936 C34.2280191,21.3563213 34.9272426,21.3213957 35.6343064,21.3270979 C36.6970404,21.3385021 37.7626255,21.3826936 38.8289234,21.4133426 C39.7006362,21.4397149 40.0769766,21.6827681 40.3043489,22.5252574 C40.6022851,23.620066 40.8432,24.7341191 41.099083,25.8403319 C41.4433489,27.3407043 41.7733596,28.846066 42.1268915,30.3435872 C42.1554021,30.4889915 42.2494872,30.6400979 42.3585404,30.7413106 C42.8018809,31.1483 43.2851362,31.5210766 43.7170723,31.9408957 C44.8667638,33.0570872 46.2559447,33.1525979 47.7406362,32.9423319 C48.2089234,32.8774702 48.6864766,32.8739064 49.1583277,32.8739064 C49.7834234,32.8696298 50.1504979,33.2402681 50.3030298,33.8062043 C50.667966,35.1704383 51.0272,36.5311085 51.3636255,37.9024702 C51.4933489,38.4413213 51.2987638,38.8048319 50.8860723,38.9117468 C50.4462957,39.0243638 50.1020298,38.7969915 49.9323915,38.2695447 C49.8290404,37.9559277 49.744934,37.635183 49.5788596,37.321566 C49.5981043,37.4897787 49.6095085,37.6544277 49.6380191,37.8183638 C49.7698809,38.5560766 49.9060191,39.2916511 50.0371681,40.0258 C50.0913383,40.2987894 50.0621149,40.4997894 49.7185617,40.5582362 C49.6266149,40.5703532 49.4947532,40.7727787 49.4947532,40.8853957 C49.5139979,41.7050766 49.5617532,42.5226191 49.5902638,43.3444383 C49.6016681,43.6003213 49.6116468,43.8683213 49.5560511,44.1128 C49.4412957,44.5996191 49.0150617,44.8733213 48.5168383,44.8312681 C48.0007957,44.7849383 47.6486894,44.4734596 47.5952319,43.9673957 C47.5018596,43.0386617 47.4312957,42.1063638 47.3471894,41.174066 C47.3393489,41.0628745 47.3222426,40.9502574 47.2210298,40.8240979 C47.196083,40.9502574 47.165434,41.0707149 47.1483277,41.1990128 C47.0492532,42.1256085 46.961583,43.0579064 46.8596574,43.9866404 C46.8004979,44.4791617 46.2979979,44.8462362 45.7570085,44.8120234 C45.2395404,44.7778106 44.8133064,44.368683 44.8268489,43.8526404 C44.8496574,43.0465021 44.9202213,42.246066 44.9736787,41.4392149 C44.9857957,41.2674383 44.9972,41.0956617 45.0200085,40.9231723 C45.0449553,40.6772681 44.9914979,40.4955128 44.7028277,40.4634383 C44.4640511,40.4342149 44.4006149,40.3044915 44.4469447,40.0671404 C44.7234979,38.6708319 45.006466,37.2780872 45.2552213,35.8775021 C45.2872957,35.6900447 45.2145936,35.4070766 45.0813064,35.2794915 C44.0114447,34.2609489 42.9123596,33.2616511 41.8139872,32.2680553 C41.6992319,32.1611404 41.5231787,32.0713319 41.3720723,32.0634915 C40.6692851,32.0235766 40.386317,31.8190128 40.2181043,31.1311936 C39.8531681,29.5873426 39.5096149,28.0456298 39.1518064,26.4996404 C39.0969234,26.266566 39.0277851,26.0334915 38.8752532,25.800417 C38.8367638,26.2223745 38.7583596,26.6407681 38.7719021,27.0577362 C38.8709766,29.8467894 38.9743277,32.6386936 39.1061894,35.4298851 C39.1902957,37.1383851 39.323583,38.8426085 39.4447532,40.5532468 C39.5074766,41.4128426 39.5972851,42.2745766 39.6756894,43.1341723 C39.7234447,43.619566 39.5972851,44.0515021 39.2323489,44.3879277 C38.7968489,44.7892149 38.2829447,44.8540766 37.7440936,44.6495128 C37.2109447,44.4470872 36.9372426,44.0172894 36.8837851,43.4556298 C36.8224872,42.8398 36.7711681,42.2225447 36.7333915,41.6038638 C36.5666043,39.1198745 36.4105085,36.6344596 36.195966,34.1440553 C36.1047319,35.2773532 36.0149234,36.4085128 35.9229766,37.5396723 C35.7661681,39.5076191 35.6136362,41.4741404 35.4511255,43.4363851 C35.3841255,44.2161511 34.7362213,44.7778106 33.9892426,44.7300553 C33.2037745,44.6815872 32.611466,44.0707468 32.6520936,43.2638957 C32.7262213,41.8119915 32.8317106,40.3615128 32.9364872,38.9153106 C33.0761894,37.1041723 33.2515298,35.2923213 33.3684234,33.4868851 C33.5252319,31.1561404 33.6471149,28.8303851 33.7789766,26.4996404 C33.7925191,26.2929383 33.7540298,26.0833851 33.6456894,25.8688426 C33.4503915,26.6315021 33.2515298,27.3898851 33.0569447,28.1539702 C32.7839553,29.2551936 32.5123915,30.3628319 32.2315617,31.4597787 C32.1260723,31.8803106 31.673466,32.2067574 31.2287,32.2067574 C30.771817,32.2053319 30.3662532,31.8881511 30.2286894,31.3927787 C30.0205617,30.6265553 29.8316787,29.8589064 29.6271149,29.092683 C29.5045191,28.6393638 29.3576894,28.1924596 29.1438596,27.7605234 C29.3291787,28.7883319 29.5087957,29.8182787 29.6962532,30.8482255 C29.9785085,32.4341298 30.269317,34.0243106 30.5594128,35.6116404 C30.6477957,36.1390872 30.6435191,36.1390872 30.0932638,36.2003851 C29.2678809,36.2901936 29.2928277,36.285917 29.3804979,37.1269809 C29.5850617,39.1733319 29.7739447,41.2275234 29.9442957,43.2760128 C30.0112957,44.0073106 29.4517745,44.6074596 28.7083596,44.6858638 C28.0162638,44.758566 27.3590936,44.256066 27.2771255,43.5375979 C27.0747,41.7927468 26.8986468,40.0464702 26.7054872,38.3001936 C26.6520298,37.7862894 26.5907319,37.2723851 26.5166043,36.7563426 C26.4994979,36.6451511 26.4382,36.5382362 26.3997106,36.4277574 L26.2721255,36.4277574 C26.2314979,36.5460766 26.1666362,36.666534 26.1495298,36.7891298 C25.8744021,38.9573638 25.5957106,41.1277362 25.3277106,43.3023851 C25.222934,44.1812255 24.6270617,44.7414596 23.8551362,44.6552149 C23.0233383,44.5632681 22.5457851,43.8832894 22.6512745,42.9773638 C22.8864872,40.8853957 23.1081574,38.7969915 23.3447957,36.7064489 C23.3825723,36.3643213 23.2834979,36.2324596 22.9207,36.1889809 C22.0147745,36.0834915 22.037583,36.0685234 22.2172,35.1554702 C22.6412957,33.0378426 23.0504234,30.9173638 23.4609766,28.7983106 C23.4802213,28.7063638 23.4802213,28.6108532 23.4481468,28.5075021 C23.1993915,29.4839915 22.9513489,30.4626191 22.7175617,31.4369702 C22.5785723,32.0135979 22.3953915,32.5068319 21.6918915,32.610183 C21.5201149,32.6365553 21.3768489,32.8774702 21.2179021,33.0207362 C20.1808277,33.9516085 19.1409021,34.8874702 18.0938489,35.8083638 C17.8493702,36.0207681 17.7688277,36.2324596 17.7980511,36.5574809 C17.8878596,37.6508638 17.9334766,38.7456723 17.9926362,39.8362043 C18.0517957,41.0742787 18.1244979,42.3087894 18.151583,43.5468638 C18.1644128,44.2959809 17.8001894,44.6095979 17.0817213,44.5597043 C16.6227,44.5290553 16.3340298,44.2403851 16.2919766,43.7571298 C16.2064447,42.7656723 16.1301787,41.7735021 16.0460723,40.784183 C16.0382319,40.7150447 16.0225511,40.6466191 15.9904766,40.4784064 C15.8721574,41.5938851 15.7531255,42.6053 15.6576149,43.6217043 C15.5870511,44.2674702 15.2164128,44.6402468 14.6355085,44.5960553 C14.0738489,44.557566 13.7338596,44.1548532 13.7723489,43.5240553 C13.8963702,41.4107043 14.0353596,39.2994915 14.1657957,37.1882787 C14.1786255,36.9858532 14.1693596,36.7848532 14.1693596,36.584566 C14.1693596,36.584566 14.1422745,36.5824277 14.1330085,36.5881298" id="Fill-3" fill="#D6A229"></path>
                        <path d="M38.7451734,18.5930702 C38.737333,19.8995702 37.6767372,20.9544638 36.3723755,20.9544638 C35.055184,20.960166 33.9717798,19.8639319 33.9910245,18.5567191 C34.0181096,17.2188574 35.0744287,16.1910489 36.413716,16.2081553 C37.723067,16.2202723 38.7544394,17.2822936 38.7451734,18.5930702" id="Fill-5" fill="#D6A229"></path>
                        <path d="M51.2602032,32.866066 C50.1290436,32.9309277 49.5958947,32.1896511 49.521767,31.440534 C49.4925436,31.1518638 49.5481394,30.856066 49.4868415,30.5809383 C49.433384,30.2922681 49.2886926,30.0228426 49.1853415,29.7477149 C49.131884,29.7669596 49.0819904,29.7862043 49.028533,29.8090128 C49.0727245,29.9308957 49.1090755,30.0570553 49.1582564,30.1832149 C49.4469266,30.9038213 49.2637457,31.7427468 48.70565,32.2887255 C48.145416,32.8389809 47.3015011,33.0071936 46.5887351,32.7149596 C45.7897245,32.3806723 45.3485223,31.7505872 45.3428202,30.9244915 C45.3392564,29.4226936 46.7569479,28.4675872 48.1226074,29.0713 C48.3635223,29.1803532 48.5124904,29.1211936 48.7077883,28.9985979 C49.5060862,28.5018 50.3870649,28.7619596 50.7484372,29.6101511 C50.828267,29.7976085 50.8781606,30.0456511 50.8247032,30.2331085 C50.5759479,31.1561404 50.4540649,32.0442468 51.2602032,32.866066" id="Fill-7" fill="#D6A229"></path>
                        <path d="M26.4573021,18.0234989 C27.7203234,18.0313394 28.7288872,19.0399032 28.7288872,20.3014989 C28.7331638,21.5467011 27.6896745,22.58235 26.4437596,22.5752223 C25.1978447,22.5709457 24.1621957,21.5281691 24.1664723,20.2879564 C24.1700362,19.0363394 25.2021213,18.0177968 26.4573021,18.0234989" id="Fill-9" fill="#D6A229"></path>
                    </g>
                </g>
            </g>
        </g>
    </g>
</svg>