<?xml version="1.0" encoding="UTF-8" standalone="no"?>
<svg width="67px" height="67px" viewBox="0 0 67 67" version="1.1" xmlns="http://www.w3.org/2000/svg" xmlns:xlink="http://www.w3.org/1999/xlink">
    <!-- Generator: Sketch 50.2 (55047) - http://www.bohemiancoding.com/sketch -->
    <title>pratico</title>
    <desc>Created with Sketch.</desc>
    <defs>
        <polygon id="path-1" points="0 0.679606973 66.4764266 0.679606973 66.4764266 66.7377108 0 66.7377108"></polygon>
    </defs>
    <g id="Welcome" stroke="none" stroke-width="1" fill="none" fill-rule="evenodd">
        <g id="Desktop-Copy-5" transform="translate(-732.000000, -323.000000)">
            <g id="simbolos" transform="translate(732.000000, 194.000000)">
                <g id="pratico" transform="translate(0.000000, 128.470978)">
                    <g>
                        <g id="Group-48" transform="translate(0.000000, 0.007083)">
                            <mask id="mask-2" fill="white">
                                <use xlink:href="#path-1"></use>
                            </mask>
                            <g id="Clip-47"></g>
                            <path d="M0.00049893617,33.896725 C-0.10071383,15.6543083 14.697733,0.784975 33.0486053,0.680141667 C51.4087436,0.577433333 66.3711266,15.2845583 66.4759032,33.52485 C66.5778287,51.7630167 51.7808074,66.634475 33.4228074,66.7371833 C15.0705096,66.8391833 0.10741383,52.1348917 0.00049893617,33.896725" id="Fill-46" fill="#FFFFFF" mask="url(#mask-2)"></path>
                        </g>
                        <path d="M33.2737681,33.2240208 C34.1298,33.2218958 34.9822681,33.2296875 35.8361617,33.2126875 C36.5011723,33.1971042 36.9730234,32.7508542 36.9765872,32.1721458 C36.9808638,31.5318125 36.520417,31.0402292 35.8511298,31.0381042 C34.1183957,31.0267708 32.3927894,31.0381042 30.6636191,31.0685625 C30.0121511,31.0763542 29.5517043,31.5622708 29.5574064,32.1494792 C29.5666723,32.7869792 30.0313957,33.2374792 30.7113745,33.2410208 C31.5659809,33.2466875 32.4220128,33.2296875 33.2737681,33.2240208 M38.2952043,25.1079375 C38.2759596,24.7856458 38.2645553,24.4952292 38.2417468,24.2048125 C38.1690447,23.4886875 38.0621298,22.7746875 38.027917,22.0585625 C37.924566,20.0575208 36.499034,18.6500625 34.489034,18.6217292 C33.5945128,18.6103958 32.6964277,18.6146458 31.796917,18.6351875 C30.1668213,18.6713125 28.7398638,19.6679375 28.4454915,21.1660625 C28.1896085,22.4594792 28.154683,23.8038958 28.0156936,25.1653125 C31.4697574,25.1447708 34.8504064,25.1256458 38.2952043,25.1079375 M40.5781936,25.1391042 C41.3045021,25.1348542 41.944566,25.1143125 42.581066,25.1291875 C44.1990447,25.1823125 45.2254277,25.9019792 45.6053319,27.4532292 C46.144183,29.6504792 46.5746936,31.8760625 47.0294383,34.0938542 C47.5105553,36.4370208 47.9767043,38.7801875 48.4335872,41.1268958 C49.0679489,44.3852292 47.0843213,46.9734792 43.7385979,47.0400625 C37.7406723,47.1590625 31.7377574,47.1654375 25.7341298,47.2029792 C24.606534,47.2107708 23.4582681,47.2638958 22.3463532,47.0988542 C19.0883,46.6086875 17.5408851,44.3512292 18.1581404,41.1268958 C18.966417,36.8846875 19.7782574,32.6467292 20.5979383,28.4066458 C21.0491191,26.0599375 21.9700128,25.2772292 24.3641936,25.1731042 C25.7911511,25.1065208 25.7989915,25.1079375 25.9443957,23.7089792 C26.032066,22.8696042 26.0363426,22.0111042 26.1774702,21.1795208 C26.6222362,18.5253958 28.7184809,16.6051042 31.4220021,16.4365208 C32.7598638,16.3550625 34.1240979,16.3416042 35.448417,16.5101875 C38.0699702,16.8558542 39.9652149,18.9468542 40.2132574,21.5726458 C40.3244489,22.7328958 40.4484702,23.8896042 40.5781936,25.1391042" id="Fill-49" fill="#D6A229"></path>
                    </g>
                </g>
            </g>
        </g>
    </g>
</svg>