<?xml version="1.0" encoding="UTF-8" standalone="no"?>
<svg width="215px" height="225px" viewBox="0 0 215 225" version="1.1" xmlns="http://www.w3.org/2000/svg" xmlns:xlink="http://www.w3.org/1999/xlink">
    <!-- Generator: Sketch 50.2 (55047) - http://www.bohemiancoding.com/sketch -->
    <title>step2</title>
    <desc>Created with Sketch.</desc>
    <defs></defs>
    <g id="Welcome" stroke="none" stroke-width="1" fill="none" fill-rule="evenodd">
        <g id="Desktop-Copy-5" transform="translate(-410.000000, -7717.000000)">
            <g id="Group-31" transform="translate(-7.000000, 7410.000000)">
                <g id="step2" transform="translate(374.000000, 269.000000)">
                    <g id="aplicar">
                        <path d="M259.430046,147.660573 C244.75536,298.841925 46.0002965,298.717602 46,147.660808 C45.9997233,9.12951425 272.815245,9.76372225 259.430046,147.660573 Z" id="Shape" fill="#FFFFFF" fill-rule="nonzero" transform="translate(153.000000, 152.500000) rotate(-45.000000) translate(-153.000000, -152.500000) "></path>
                        <path d="M187.697752,161.616321 C188.453566,161.17275 188.849109,160.129351 189.41345,159.363183 C188.710543,158.846523 188.080698,158.047592 187.302209,157.86109 C178.955504,155.885184 170.588643,154.005048 162.229341,152.10475 C161.536512,151.948492 160.81093,151.908167 160.145814,151.686382 C153.101628,149.365195 147.93186,153.770661 142.386705,156.684115 C141.046395,157.389796 141.341163,158.536528 143.112287,159.214486 C146.221202,160.409103 149.337674,161.671768 152.559961,162.468179 C159.082636,164.078644 165.678372,165.396755 170.538256,166.457797 C177.83438,165.855448 182.981473,164.398721 187.697752,161.616321 M113.509574,154.54439 C112.154147,154.20163 111.252209,153.460665 111.141357,151.729227 C110.39562,140.148497 109.518876,128.575329 108.702597,116.99964 C108.672364,116.611516 108.793295,116.21331 108.858798,115.69161 C110.027791,115.956241 111.055698,116.198188 112.088643,116.419974 C116.802403,117.443211 121.483411,118.862134 126.40124,117.838897 C132.238643,116.626638 138.086124,115.452183 143.91093,114.174396 C146.987093,113.501479 150.022946,112.64206 153.41655,111.790202 C152.751434,123.864908 152.103953,135.622058 151.458992,147.336362 C152.663256,147.336362 153.74155,147.202787 154.777016,147.354004 C166.260349,148.992192 177.569845,151.426792 188.622364,154.987961 C190.849496,155.703723 193.205116,156.295991 195.150078,157.51329 C196.419845,158.304661 197.367132,160.005856 197.883605,161.500388 C198.450465,163.141096 196.565969,163.451092 195.570814,164.050921 C184.717326,170.66416 173.060155,172.372916 160.679922,169.741734 C150.892132,167.657455 141.706473,163.902224 132.634186,159.796672 C132.016938,159.5144 131.152791,159.784071 130.402016,159.796672 C130.865581,160.313332 131.230891,161.087061 131.810349,161.311366 C139.129147,164.232382 146.352209,167.473474 153.844845,169.852627 C168.915775,174.636136 183.581085,173.867447 197.289031,165.152287 C197.53593,164.996029 197.865969,164.970826 198.324496,164.839771 C196.782636,173.998503 191.673333,180.180772 183.807829,184.203154 C182.432248,184.911355 182.008992,185.659881 182.119845,187.139291 C182.62876,193.956673 182.978953,200.781617 183.525659,207.593959 C183.68186,209.489216 182.971395,210.683833 181.555504,211.744875 C176.161512,215.789939 170.127597,216.702284 163.748527,215.081738 C152.597752,212.251453 142.318682,207.162989 131.850659,202.543299 C128.877791,201.235269 127.393876,199.690331 128.247946,196.393793 C128.439419,195.652828 128.348721,194.833734 128.318488,194.047404 C128.222752,191.627926 129.424496,190.050225 131.651628,189.452916 C133.052403,189.077393 133.508411,188.434719 133.362287,187.078804 C132.621589,180.299226 131.941357,173.507046 131.160349,166.732509 C130.971395,165.104402 130.071977,163.967751 128.439419,163.221746 C125.642907,161.946479 123.277209,160.139432 123.052984,156.716879 C119.722364,155.965833 116.595814,155.3282 113.509574,154.54439" id="Fill-5" fill="#00ADEE"></path>
                        <path d="M130.030155,106.145258 C132.287519,107.473451 134.615426,107.420525 136.991202,106.3368 C134.701085,105.142183 132.385775,105.02625 130.030155,106.145258 M110.688876,114.212704 C108.423953,113.718728 107.796628,112.640044 109.00593,110.674218 C109.620659,109.681224 110.95593,108.786522 112.117364,108.534493 C119.738488,106.883703 127.478023,105.709248 135.028605,103.796349 C140.689651,102.362304 145.967752,103.335136 151.361744,104.638126 C153.425116,105.137143 153.034612,106.790453 153.304186,108.184173 C153.596434,109.678704 152.573566,109.983659 151.502829,110.270972 C148.701279,111.032099 145.924922,111.919241 143.088101,112.52159 C136.230349,113.985878 129.342364,115.316591 122.537519,116.690149 C118.441008,115.835771 114.558643,115.054481 110.688876,114.212704" id="Fill-7" fill="#00ADEE"></path>
                        <path d="M170.539516,166.457545 C177.83312,165.855196 182.982733,164.398469 187.699012,161.616069 C188.452306,161.172498 188.850368,160.129099 189.41219,159.362931 C188.709283,158.846271 188.081957,158.04734 187.30095,157.860838 C178.956764,155.884931 170.589903,154.004796 162.228081,152.104498 C161.535252,151.94824 160.81219,151.907915 160.144554,151.68613 C153.102888,149.364943 147.93312,153.770409 142.385446,156.686383 C141.047655,157.389544 141.342422,158.536276 143.111027,159.216754 C146.219942,160.408851 149.336415,161.671516 152.558702,162.470447 C159.083895,164.078392 165.679632,165.396503 170.539516,166.457545" id="Fill-9" fill="#FFFFFF"></path>
                        <path d="M187.697752,161.616321 C182.981473,164.398721 177.83438,165.855448 170.538256,166.457797 C165.678372,165.396755 159.082636,164.078644 152.559961,162.468179 C149.337674,161.671768 146.221202,160.409103 143.112287,159.214486 C141.341163,158.536528 141.046395,157.389796 142.386705,156.684115 C147.93186,153.770661 153.101628,149.365195 160.145814,151.686382 C160.81093,151.908167 161.536512,151.948492 162.229341,152.10475 C170.588643,154.005048 178.955504,155.885184 187.302209,157.86109 C188.080698,158.047592 188.710543,158.846523 189.41345,159.363183 C188.849109,160.129351 188.453566,161.17275 187.697752,161.616321 Z M197.500659,156.90338 L154.577984,143.263575 L124.77876,159.179202 L172.251434,176.607002 L176.292519,189.238692 L200.279535,174.837759 L197.500659,156.90338 Z" id="Fill-11" fill="#D8A429"></path>
                    </g>
                    <g id="num-1" transform="translate(56.000000, 57.000000)">
                        <g id="certo" fill="#005E81" fill-rule="nonzero">
                                    <!-- <animateTransform begin="0.3s" attributeType="xml" attributeName="transform" type="rotate" from="360 20 20" to="0 20 20" dur="12s" additive="sum" repeatCount="indefinite" />  -->
                            
                            <path d="M0.400849136,28.8575274 C-3.81557835,7.36497568 26.3574428,-13.8509239 38.0886781,11.6638605 C48.8471797,35.0629784 11.1592873,52.2567217 0.400849136,28.8575274 Z" id="Shape"></path>
                        </g>
                        <path d="M15.6893009,25.7588796 L21.1946619,25.7588796 C21.730582,25.7588796 21.9620021,25.7832396 22.2056021,25.9293996 C22.5222822,26.0999196 22.7171622,26.4531397 22.7171622,26.8794398 C22.7171622,27.3057399 22.5222822,27.6589599 22.2056021,27.82948 C21.9620021,27.96346 21.730582,28 21.1946619,28 L14.1789806,28 C13.5699805,28 13.1071404,27.98782 12.7539203,27.6345999 C12.5590403,27.4275399 12.4250603,27.1230398 12.4250603,26.7698198 C12.4250603,26.2460797 12.6564803,25.9293996 13.1193204,25.3447595 L18.9170015,18.0854781 C19.6721616,17.1354379 20.0984617,16.3315578 20.0984617,15.1866376 C20.0984617,13.7737573 19.2093216,12.7506371 17.5893812,12.7506371 C16.359201,12.7506371 15.4822408,13.2743772 14.9950408,14.7359775 C14.8610607,15.1257376 14.7270807,15.3815176 14.5078407,15.5885777 C14.3616806,15.7347377 14.0937206,15.8443577 13.7526805,15.8443577 C13.3629204,15.8443577 13.0706004,15.7225577 12.8635404,15.4545976 C12.6564803,15.1988176 12.5712203,14.9064975 12.5712203,14.5654575 C12.5712203,13.7493973 13.0462404,12.5557571 13.9597406,11.7396969 C14.8610607,10.9479968 15.9816209,10.5095167 17.5406612,10.5095167 C20.5856618,10.5095167 22.5953622,12.190357 22.5953622,15.1379176 C22.5953622,16.9161979 21.9376421,17.9393181 20.8414419,19.3034784 L15.6893009,25.7588796 Z M29.1603813,26.2947997 C29.1603813,27.2691999 28.3565012,28.07308 27.382101,28.07308 C26.4077008,28.07308 25.6038206,27.2691999 25.6038206,26.2947997 C25.6038206,25.3203995 26.4077008,24.5408793 27.382101,24.5408793 C28.3565012,24.5408793 29.1603813,25.3203995 29.1603813,26.2947997 Z" id="2." fill="#FFFFFF"></path>
                    </g>
                </g>
            </g>
        </g>
    </g>
</svg>