<?xml version="1.0" encoding="UTF-8" standalone="no"?>
<svg width="214px" height="217px" viewBox="0 0 214 217" version="1.1" xmlns="http://www.w3.org/2000/svg" xmlns:xlink="http://www.w3.org/1999/xlink">
    <!-- Generator: Sketch 50.2 (55047) - http://www.bohemiancoding.com/sketch -->
    <title>step1</title>
    <desc>Created with Sketch.</desc>
    <defs>
        <polygon id="path-1" points="0.8733894 0.364074325 112.878355 0.364074325 112.878355 145.537434 0.8733894 145.537434"></polygon>
    </defs>
    <g id="Welcome" stroke="none" stroke-width="1" fill="none" fill-rule="evenodd">
        <g id="Desktop-Copy-5" transform="translate(-171.000000, -7723.000000)">
            <g id="Group-31" transform="translate(-7.000000, 7410.000000)">
                <g id="step1" transform="translate(178.000000, 313.000000)">
                    <path d="M213.430046,103.660573 C198.75536,254.841925 0.000296465481,254.717602 0,103.660808 C-0.000276701116,-34.8704858 226.815245,-34.2362778 213.430046,103.660573 Z" id="Shape" fill="#FFFFFF" fill-rule="nonzero"></path>
                    <g id="bolso" transform="translate(45.000000, 30.000000)">
                        <mask id="mask-2" fill="white">
                            <use xlink:href="#path-1"></use>
                        </mask>
                        <g id="Clip-34"></g>
                        <path d="M74.5451291,145.537434 C71.8215249,145.537434 67.8963307,145.281948 65.688409,145.084641 C62.8070962,144.826626 54.4510386,144.110758 54.4510386,144.110758 L37.3434001,142.125048 L18.052873,139.119923 L18.6086084,135.474817 L37.8315461,138.469824 L54.8140189,140.442886 L54.8115156,140.442886 C54.8215289,140.442886 63.1350301,141.156224 66.008833,141.41424 C68.7674835,141.659608 73.6514465,141.947979 75.8643748,141.818971 C78.7356744,141.652019 84.0101541,140.703432 86.2506189,139.775081 C88.9116403,138.672189 94.2286763,134.953726 96.4140682,132.674586 C99.0700829,129.894592 102.885131,122.402015 104.241927,118.663316 C105.806497,114.363052 107.683982,100.624974 107.859214,99.342484 L109.228526,50.3245375 L112.878355,50.4307793 L111.486514,99.739626 C111.406408,100.364429 109.436301,115.071331 107.668962,119.935688 C106.134431,124.160064 102.109104,132.027017 99.0375399,135.237038 C96.7369955,137.640126 91.0244361,141.783557 87.6374541,143.187466 C84.7811744,144.373833 78.9759924,145.332539 76.0721498,145.49949 C75.6340701,145.527316 75.1158844,145.537434 74.5451291,145.537434" id="Fill-35" fill="#00ADEE" mask="url(#mask-2)"></path>
                        <path d="M103.135212,62.5868657 C103.135212,65.452865 100.834668,67.7800665 97.9959115,67.7800665 C95.1546516,67.7800665 92.8541073,65.452865 92.8541073,62.5868657 C92.8541073,59.7158074 95.1546516,57.3911354 97.9959115,57.3911354 C100.834668,57.3911354 103.135212,59.7158074 103.135212,62.5868657" id="Fill-36" fill="#00ADEE" mask="url(#mask-2)"></path>
                        <path d="M102.323638,89.1088683 C102.323638,91.9773971 100.020591,94.3020691 97.1818342,94.3020691 C94.3430777,94.3020691 92.0425334,91.9773971 92.0425334,89.1088683 C92.0425334,86.2403395 94.3430777,83.913138 97.1818342,83.913138 C100.020591,83.913138 102.323638,86.2403395 102.323638,89.1088683" id="Fill-37" fill="#00ADEE" mask="url(#mask-2)"></path>
                        <path d="M70.972151,93.5467404 C70.9045615,94.2752556 70.8369721,95.0037709 70.7693827,95.7322862 C60.7160791,94.7887577 50.6602723,93.8452293 40.6069688,92.9017008 C40.544386,91.6419765 40.6820682,90.448021 41.5682408,89.4463125 C42.2891949,88.6343216 42.5470361,87.6579088 42.6446653,86.5626063 C43.435712,77.6079396 44.2693152,68.653273 45.1054216,59.7011359 C45.1780176,58.9220293 45.0503487,58.2238688 44.7424412,57.5155901 C44.3293947,56.5594138 43.7386129,55.6614176 44.0415137,54.4826394 C44.2643085,53.6175276 44.1516595,53.5897023 45.0703752,53.6731781 C54.3977181,54.5509378 63.7250609,55.4286975 73.0524038,56.2988684 C73.4954901,56.3418711 73.9435831,56.3519894 74.3866694,56.377285 C74.3215833,57.1058003 74.2539938,57.8343155 74.1864044,58.5653604 C73.9010267,58.9321475 73.6131458,59.2964052 73.3302715,59.6682515 C72.6193307,60.6041912 72.2438338,61.6311954 72.1386947,62.8428579 C71.3676744,71.6887532 70.5566011,80.5321189 69.7029715,89.3704255 C69.5452628,90.9918779 70.1811042,92.2718387 70.972151,93.5467404" id="Fill-38" fill="#D8A429" mask="url(#mask-2)"></path>
                        <path d="M78.2450252,73.996983 L35.0103127,71.1208654 L34.0840871,85.3294425 L34.0865904,85.3294425 L32.241649,113.61 C31.9762978,117.69525 35.0378492,121.223996 39.0806991,121.49466 L67.6510061,123.394364 C71.693856,123.662499 75.1859771,120.571368 75.4513283,116.486117 L77.2962697,88.2030304 L77.3162962,88.2030304 L78.2450252,73.996983 Z" id="Fill-39" fill="#00ADEE" mask="url(#mask-2)"></path>
                        <path d="M44.2705668,31.0894581 C48.8916819,30.8466197 53.5027838,29.8575591 58.0663227,28.4081173 C58.717184,30.6569022 60.40692,36.2523041 61.7687221,38.103947 C63.0904712,39.8974099 64.4547765,41.6655772 65.8190819,43.4261557 C68.0920898,46.3579237 68.8255604,45.859599 68.5827391,49.6640675 C68.5326728,50.4937655 68.2447919,51.3108156 68.0470302,52.1253361 C67.9368844,52.5882468 67.5513743,52.5654807 67.1934006,52.575599 C66.7878639,52.5857173 66.8504467,52.2442257 66.7978772,52.0115056 C66.5049896,50.5949481 66.9130295,52.9095018 66.6226453,51.4878852 C66.4824598,50.8023726 66.0894397,50.4634107 65.5812672,50.5772412 C65.0680881,50.6910717 64.8578099,51.138805 65.0004987,51.8445542 C65.6638765,55.1835824 66.339771,58.5251402 66.9931355,61.8641685 C67.3335861,63.6146288 65.8941813,65.0362453 64.2520082,64.6087485 C63.8064186,64.4923884 63.5185376,64.2874935 63.433425,63.7588141 C63.265703,62.6812186 63.0228817,61.6162709 62.8075968,60.5462642 C62.7750538,60.3793127 62.7475173,60.2123613 62.6924445,60.0529986 C62.5322324,59.5850288 62.1141792,59.3295425 61.7011327,59.4383139 C61.2780728,59.5496148 61.0252382,59.9543455 61.1228674,60.4501406 C61.3681921,61.7655154 61.6410531,63.075831 61.8988943,64.3836171 C62.1642455,65.7192284 61.4758345,66.8524743 60.2316881,67.1281971 C58.9800318,67.4013903 57.8084815,66.6222837 57.5306138,65.2993203 C57.1851567,63.6222175 56.8572227,61.9400555 56.5242821,60.2604231 C56.4967457,60.1314152 56.4767192,60.0024073 56.4441761,59.8733994 C56.3140039,59.3244834 55.9059639,59.0082875 55.450361,59.1018815 C54.9897515,59.1954755 54.7244004,59.6280314 54.8320428,60.1997135 C55.0748641,61.4948517 55.3201888,62.7874604 55.6080697,64.0750099 C55.7006923,64.4923884 55.5830366,64.7504043 55.2801358,65.0008314 C53.96089,66.1062521 52.0283327,65.3979734 51.6328093,63.6348653 C51.3849813,62.5547402 51.1847163,61.4594378 50.9719347,60.3691945 C50.8918287,59.9366385 50.6740405,59.6330905 50.2234442,59.5774401 C49.6576956,59.5116713 49.2571656,59.9796412 49.364808,60.6019146 C49.4999869,61.3810212 49.652689,62.1575982 49.8279208,62.9265866 C49.9130335,63.2908442 49.8103977,63.5336826 49.5475498,63.7689323 C48.4310724,64.7832886 46.6637337,64.419031 46.0278923,63.017651 C45.8902101,62.714103 45.8050975,62.3776706 45.7400113,62.0488269 C45.08915,58.8210996 44.3556794,55.6060201 43.839997,52.3555267 C43.5170697,50.3394619 42.8411753,48.3866363 42.8461819,46.314921 C42.8511886,44.1116683 43.3468445,41.9918913 43.8299838,39.8645255 C44.2179972,38.1646566 43.9000765,32.8854506 44.2705668,31.0894581" id="Fill-40" fill="#00ADEE" mask="url(#mask-2)"></path>
                        <path d="M55.607569,58.625564 C56.2208806,58.625564 56.7240465,59.0732974 56.8867618,59.7663987 C56.9142982,59.8701109 56.9318214,59.9763527 56.9543512,60.080065 L57.2797819,61.7344017 C57.5100866,62.8929433 57.7403914,64.0489554 57.9782061,65.2049674 C58.1984976,66.2522081 59.1322332,66.8947181 60.1335583,66.6771753 C61.13989,66.4545735 61.6705922,65.5717546 61.452804,64.4764522 L61.1949628,63.1914322 C61.0172276,62.3086134 60.8394924,61.4257946 60.6742738,60.5379166 C60.5340883,59.81699 60.9195984,59.1643618 61.5879829,58.9923512 C62.228831,58.8279294 62.8922088,59.2174827 63.1250169,59.9029953 C63.1775864,60.0522397 63.2101295,60.214132 63.2401693,60.3734947 L63.4429376,61.3625554 C63.6006463,62.1188959 63.7633616,62.9030616 63.8835206,63.6897569 C63.9285802,63.9755979 64.0287127,64.074251 64.3666599,64.1627859 C65.047561,64.3423851 65.7409786,64.1147241 66.1715483,63.5885742 C66.5320254,63.1433704 66.6647009,62.5640996 66.5445419,61.954474 C66.1064622,59.7056891 65.6558659,57.4569042 65.207773,55.2106488 L64.5519051,51.9373893 C64.3266069,50.8066729 64.887349,50.2602865 65.4831374,50.128749 C66.1840649,49.9693863 66.7923699,50.3968831 67.025178,51.208874 C67.1253105,51.3429411 67.1728734,51.5731317 67.2479728,51.9171527 C67.257986,51.9753328 67.265496,52.038572 67.2730059,52.1068703 L67.2730059,52.1093998 C67.4232047,52.1068703 67.5508736,52.0992816 67.58592,52.0765155 C67.6610194,51.7856153 67.7236022,51.5554247 67.786185,51.3227045 C67.9438937,50.7383746 68.0940924,50.186929 68.1291388,49.6354834 C68.2993641,46.9490834 68.026503,46.648065 66.8774825,45.3782224 C66.496979,44.9583143 66.0238529,44.4372236 65.4606076,43.7087083 C64.2164612,42.1049629 62.7720498,40.2406721 61.4027378,38.3789109 C60.1385649,36.6588055 58.6265641,31.9411633 57.7579146,28.9891588 C53.0642034,30.4461893 48.7735256,31.2809463 44.6605829,31.5313735 C44.5404239,32.4496062 44.525404,33.9724055 44.5128875,35.4522021 C44.4978676,37.3063746 44.4803444,39.0593644 44.2750728,39.9674789 L44.2375231,40.1243121 C43.7593904,42.2314413 43.3087941,44.2171512 43.3037875,46.3166917 C43.2987808,47.6270074 43.5766486,48.8766134 43.8695361,50.1995768 C44.0197349,50.8775008 44.1774436,51.5781908 44.2900927,52.2814104 C44.6605829,54.6212597 45.1537355,56.9813456 45.6318682,59.268074 C45.8171134,60.1635407 46.0048618,61.0590074 46.1851003,61.9570036 C46.2376699,62.2124898 46.3152726,62.5413335 46.4429415,62.8271746 C46.7383324,63.4798028 47.3616572,63.8870631 48.0650881,63.8870631 C48.4981612,63.8870631 48.9162144,63.7226413 49.2441483,63.4266819 C49.409367,63.2774375 49.4218835,63.1990209 49.3843339,63.0320695 C49.2116053,62.2883768 49.0589032,61.5219181 48.9162144,60.6795723 C48.841115,60.2546051 48.9412475,59.8372266 49.1890755,59.5387377 C49.4519233,59.2250714 49.8374334,59.0707678 50.2780165,59.1213591 C50.6284802,59.1643618 51.2442951,59.3717863 51.4220303,60.2824303 L51.5496993,60.9527655 C51.7149179,61.8153478 51.8801365,62.6779301 52.0753949,63.5329237 C52.2806666,64.4359791 53.0141372,65.0683708 53.8652635,65.0683708 C54.2708001,65.0683708 54.6588136,64.9216559 54.9917541,64.6434036 C55.1820059,64.4865704 55.2120457,64.3980356 55.1619794,64.1754337 C54.8715951,62.8651181 54.6187606,61.5345659 54.3834492,60.2849599 C54.2357537,59.4856168 54.6437937,58.7975746 55.3572378,58.6483301 C55.4448537,58.6331527 55.527463,58.625564 55.607569,58.625564 M59.7305249,67.6434699 C58.4488289,67.6434699 57.3623912,66.7176484 57.0870268,65.3946849 C56.8442055,64.2361433 56.616404,63.0750721 56.3860993,61.914001 L56.055662,60.2546051 C56.0406421,60.1635407 56.0231189,60.0724763 56.0005891,59.9839414 C55.9380063,59.7183369 55.7828009,59.5463264 55.607569,59.5463264 C55.214549,59.6222134 55.2571053,60.0016484 55.2796351,60.1129494 C55.5124432,61.3574962 55.7627744,62.6779301 56.0531587,63.9730684 C56.1808276,64.5371618 56.0281256,64.979836 55.5725227,65.3567414 C55.0743635,65.7715904 54.4835817,65.9916627 53.8652635,65.9916627 C52.5860707,65.9916627 51.4846131,65.0633117 51.1842156,63.7378187 C50.9914606,62.8727068 50.8212353,62.0000062 50.6560167,61.1273057 L50.5258444,60.4595 C50.4557517,60.1003015 50.3130628,60.0547693 50.170374,60.0370623 C50.0201753,60.0370623 49.9425726,60.0674172 49.8874997,60.1306563 C49.8124003,60.2217207 49.7873672,60.3633765 49.8149036,60.5227392 C49.9550891,61.3448484 50.1052879,62.0986593 50.2730098,62.8221155 C50.3906655,63.3280288 50.2529833,63.7504665 49.8549566,64.1121946 C49.3593007,64.5599279 48.7259626,64.8078254 48.0650881,64.8078254 C47.0011802,64.8078254 46.0599347,64.1956703 45.6118417,63.2091392 C45.4466231,62.8398224 45.3540005,62.44521 45.2914177,62.141662 C45.1136825,61.2461953 44.9259341,60.3507286 44.7381856,59.4577915 C44.2575496,57.1609448 43.764397,54.7882111 43.3889001,52.4281252 C43.2812577,51.7527309 43.1260523,51.0672183 42.9808601,50.4019422 C42.6879726,49.089097 42.3850717,47.72819 42.3900784,46.3141622 C42.395085,44.113439 42.8807276,41.9810141 43.3513504,39.9194172 L43.3863968,39.762584 C43.5691386,38.950593 43.5866618,37.169778 43.6016817,35.447143 C43.6167016,33.6359731 43.6317214,31.9259859 43.8244765,30.9951053 L43.8945693,30.6485546 L44.2475363,30.6283181 C48.520691,30.4057162 52.9941107,29.5355452 57.9306432,27.9697433 L58.3737295,27.8280876 L58.5039018,28.2808801 C59.9007502,33.1098232 61.2275059,36.5905072 62.1362084,37.8274654 C63.4980105,39.6791083 64.9374152,41.5408695 66.1790583,43.1395558 C66.7222771,43.8377162 67.1803833,44.3486887 67.5508736,44.755949 C68.8576028,46.2003317 69.2280931,46.7492477 69.0403446,49.6936635 C69.0002916,50.338703 68.8300664,50.9609765 68.667351,51.565543 C68.6047682,51.7881448 68.5446887,52.0132763 68.4921192,52.2358782 C68.3043707,53.0124552 67.6084498,53.0276326 67.2705026,53.0352213 L67.17788,53.0352213 C66.7147672,53.0377509 66.4444094,52.7746759 66.3718134,52.2586443 C66.2867007,52.1271068 66.2416411,51.9045049 66.176555,51.5807204 C66.136502,51.3935324 66.0113363,50.9533878 65.6808991,51.0267452 C65.5732566,51.0520409 65.3179187,51.1076913 65.448091,51.7527309 L66.1014556,55.02852 C66.5520519,57.2773049 67.0026481,59.5260898 67.4407278,61.7774043 C67.6109531,62.6501049 67.4031782,63.5228055 66.8749792,64.1729042 C66.2241179,64.9747768 65.1627134,65.3238571 64.1388585,65.055723 C63.7057854,64.9418925 63.1175069,64.6914654 62.9848314,63.8314126 C62.8671757,63.0725426 62.7069637,62.2984951 62.5517583,61.5522729 L62.3615065,60.6365697 C62.3214535,60.4342043 62.2989237,60.3153147 62.2638773,60.2040138 C62.1937846,60.004178 62.0485924,59.8751701 61.8908837,59.8751701 C61.6155194,59.9384092 61.5228968,60.1205381 61.5679564,60.3633765 C61.7356784,61.2461953 61.9134136,62.1264846 62.0886454,63.0093034 L62.3464866,64.2943234 C62.661904,65.8702435 61.8132811,67.251387 60.3263134,67.5777011 C60.1285517,67.6207038 59.93079,67.6434699 59.7305249,67.6434699" id="Fill-41" fill="#00ADEE" mask="url(#mask-2)"></path>
                    </g>
                    <g id="num-1" transform="translate(5.000000, 13.000000)">
                        <g id="certo" fill="#005E81" fill-rule="nonzero">
                            <path d="M0.400849136,28.8575274 C-3.81557835,7.36497568 26.3574428,-13.8509239 38.0886781,11.6638605 C48.8471797,35.0629784 11.1592873,52.2567217 0.400849136,28.8575274 Z" id="Shape"></path>
                                    <!-- <animateTransform attributeType="xml" attributeName="transform" type="rotate" from="360 20 20" to="0 20 20" dur="12s" additive="sum" repeatCount="indefinite" /> -->
                        </g>
                        <path d="M13.8135805,14.4071174 L16.9925611,11.2281368 C17.3701412,10.8505568 17.7842613,10.5582367 18.3567214,10.5582367 C18.7464815,10.5582367 19.0631615,10.6922167 19.2945816,10.9236368 C19.6234416,11.2646768 19.6599816,11.7153369 19.6599816,12.226897 L19.6599816,26.4044197 C19.6599816,27.0012398 19.6234416,27.2204799 19.4772816,27.5127999 C19.3067616,27.84166 18.9535415,28.09744 18.4176214,28.09744 C17.8817013,28.09744 17.5284812,27.84166 17.3579612,27.5127999 C17.2118012,27.2204799 17.1752612,27.0012398 17.1752612,26.4044197 L17.1752612,14.3340374 L15.4578808,16.0514177 C15.0437608,16.4655378 14.8610607,16.5995178 14.5931007,16.6725979 C14.2277006,16.7700379 13.8257605,16.6604179 13.5090805,16.3437378 C13.1924004,16.0270577 13.0949604,15.6494777 13.1924004,15.2840776 C13.2654804,15.0161175 13.3994605,14.8212375 13.8135805,14.4071174 Z M29.1603813,26.2947997 C29.1603813,27.2691999 28.3565012,28.07308 27.382101,28.07308 C26.4077008,28.07308 25.6038206,27.2691999 25.6038206,26.2947997 C25.6038206,25.3203995 26.4077008,24.5408793 27.382101,24.5408793 C28.3565012,24.5408793 29.1603813,25.3203995 29.1603813,26.2947997 Z" id="1." fill="#FFFFFF"></path>
                    </g>
                </g>
            </g>
        </g>
    </g>
</svg>