<?xml version="1.0" encoding="UTF-8" standalone="no"?>
<svg width="218px" height="215px" viewBox="0 0 218 215" version="1.1" xmlns="http://www.w3.org/2000/svg" xmlns:xlink="http://www.w3.org/1999/xlink">
    <!-- Generator: Sketch 50.2 (55047) - http://www.bohemiancoding.com/sketch -->
    <title>step3</title>
    <desc>Created with Sketch.</desc>
    <defs></defs>
    <g id="Welcome" stroke="none" stroke-width="1" fill="none" fill-rule="evenodd">
        <g id="Desktop-Copy-5" transform="translate(-653.000000, -7724.000000)">
            <g id="Group-31" transform="translate(-7.000000, 7410.000000)">
                <g id="step3" transform="translate(660.000000, 314.000000)">
                    <g id="utilize">
                        <path d="M215.430046,102.660573 C200.75536,253.841925 2.00029647,253.717602 2,102.660808 C1.9997233,-35.8704858 228.815245,-35.2362778 215.430046,102.660573 Z" id="Shape" fill="#FFFFFF" fill-rule="nonzero" transform="translate(109.000000, 107.500000) rotate(-90.000000) translate(-109.000000, -107.500000) "></path>
                        <path d="M120.44157,171.858758 L86.5760659,171.858758 C86.5055233,170.170165 87.2386628,168.935223 88.3320736,168.453848 C90.2291667,167.624672 90.4307171,166.057053 90.2291667,164.106349 C90.1938953,163.758549 90.1787791,163.415789 90.1435078,162.929374 L84.5983527,162.929374 L84.5983527,154.178929 L90.032655,154.178929 C90.5062984,152.427328 90.1132752,151.83254 88.7024225,151.199947 C87.0396318,150.453942 85.4499031,149.035019 84.2179264,147.482521 C81.4340116,143.966717 79.7737403,139.594015 78.3729651,135.125542 C77.9950581,133.933445 77.5995155,133.338657 76.4330426,133.389063 C74.8861434,133.45207 74.3243217,132.66826 74.2991279,130.639427 C74.2562984,127.738574 74.286531,124.837721 74.286531,121.936869 C74.2840116,113.06041 74.2814922,104.183951 74.2890504,95.3074921 C74.2890504,92.4041188 74.7803295,91.8294929 77.2140504,91.8269726 C79.4739341,91.821932 81.7388566,91.8194117 83.9987403,91.8269726 C86.1502907,91.8320132 86.8128876,92.5956608 86.815407,95.1361124 C86.8204457,106.676517 86.815407,118.224482 86.815407,129.767407 L86.815407,131.723152 C86.9867248,131.738274 87.1580426,131.750875 87.3268411,131.765997 C87.3797481,131.037633 87.4603682,130.30927 87.4729651,129.578386 C87.5132752,127.322727 88.0599806,126.604444 89.906686,126.599404 C102.392733,126.589323 114.881298,126.589323 127.367345,126.599404 C129.108236,126.599404 129.763275,127.272321 129.685174,129.280991 C129.624709,130.868774 129.465988,132.514523 129.037694,134.006534 C127.614244,138.903456 125.734787,143.545829 122.842539,147.515284 C121.482074,149.385339 119.942733,150.937837 117.781105,151.444415 C117.430911,151.527585 116.942151,152.245867 116.937112,152.676837 C116.874128,157.256202 116.86657,161.840609 116.942151,166.422494 C116.949709,166.901349 117.498934,167.526381 117.924709,167.808654 C119.688275,168.970507 120.295446,169.845047 120.44157,171.858758" id="Fill-15" fill="#00ADEE"></path>
                        <polygon id="Fill-16" fill="#D8A429" points="129.11655 143.024381 134.215775 138.240872 135.00686 123.913027 87.4107364 123.711404 87.2318605 127.108754 130.761705 126.705508"></polygon>
                        <path d="M129.809128,93.1675145 C127.637422,99.2943377 125.57405,105.096044 123.404864,111.215306 L129.647888,111.215306 C134.099632,111.215306 138.551376,111.195144 143.00312,111.220347 C147.160097,111.243029 149.281415,113.302105 149.291492,117.410177 C149.319205,128.612863 149.314167,139.813028 149.296531,151.013194 C149.286453,154.702897 147.22812,157.008962 143.990717,157.056848 C140.632384,157.112294 138.468236,154.828912 138.448081,150.995552 C138.400213,142.08885 138.430446,133.182147 138.430446,124.272925 L138.430446,122.007185 C137.536066,121.96434 136.762616,121.903853 135.991686,121.903853 C128.839167,121.896292 121.691686,121.906373 114.541686,121.893772 C107.852733,121.88117 104.151764,116.7423 106.35874,110.418895 C109.52812,101.343333 112.813391,92.3055755 115.980252,83.2325342 C117.159322,79.8528262 119.396531,77.7156209 122.903508,77.2418065 C126.3475,76.7730327 128.859322,78.3230106 130.970562,81.1356535 C136.309128,88.2479098 141.879477,95.1862662 147.341492,102.207792 C147.996531,103.054609 148.699438,103.926629 149.089942,104.901981 C149.795368,106.668704 148.97405,108.684936 147.384322,109.647686 C145.588004,110.72889 143.585097,110.507105 142.128895,108.747943 C139.208934,105.217017 136.425019,101.572679 133.585678,97.9762264 C132.421725,96.4968166 131.260291,95.0123662 129.809128,93.1675145" id="Fill-17" fill="#00ADEE"></path>
                        <path d="M129.510329,53.5344535 C135.297345,53.7033129 140.081647,58.6657624 139.880097,64.2960887 C139.668469,70.1834844 134.710329,74.8913848 128.913236,74.7099239 C123.161492,74.5284631 118.606453,69.6466628 118.737461,63.7995917 C118.86343,57.965122 123.695601,53.3681144 129.510329,53.5344535" id="Fill-18" fill="#00ADEE"></path>
                    </g>
                    <g id="num-1" transform="translate(3.000000, 12.000000)">
                        <g id="certo" fill="#005E81" fill-rule="nonzero">
                                    <!-- <animateTransform begin="0.6s" attributeType="xml" attributeName="transform" type="rotate" from="360 20 20" to="0 20 20" dur="12s" additive="sum" repeatCount="indefinite" /> -->

                            <path d="M0.400849136,28.8575274 C-3.81557835,7.36497568 26.3574428,-13.8509239 38.0886781,11.6638605 C48.8471797,35.0629784 11.1592873,52.2567217 0.400849136,28.8575274 Z" id="Shape"></path>
                        </g>
                        <path d="M17.3579612,10.5095167 C20.2446217,10.5095167 22.4492022,12.263437 22.4492022,15.2718976 C22.4492022,17.184158 21.572242,18.3777982 20.2080817,19.0355183 C21.681862,19.6323384 22.6440822,20.9599587 22.6440822,23.0914591 C22.6440822,26.4287797 20.2080817,28.14616 17.3214212,28.14616 C15.5796809,28.14616 14.1180806,27.5736999 13.1802204,26.5140397 C12.6808403,25.9415796 12.2301802,25.0889794 12.2301802,24.2607393 C12.2301802,23.8466192 12.3885203,23.5299392 12.6199403,23.2985191 C12.8635404,23.0549191 13.2045804,22.920939 13.5456205,22.920939 C13.8501205,22.920939 14.1180806,23.0427391 14.2886006,23.2619791 C14.5078407,23.5299392 14.5687407,24.0171392 14.8732407,24.6139594 C15.2995408,25.4787395 16.091241,25.9050396 17.3336012,25.9050396 C18.9413615,25.9050396 20.1593617,24.8819194 20.1593617,23.0427391 C20.1593617,21.2766387 19.1727815,20.2413385 17.3579612,20.2047985 C17.0412811,20.1926185 16.7855011,20.1560785 16.5784411,20.0342785 C16.249581,19.8515785 16.079061,19.5348984 16.079061,19.1207783 C16.079061,18.7066582 16.249581,18.3899782 16.5784411,18.2072781 C16.7855011,18.0854781 17.0412811,18.0367581 17.3579612,18.0367581 C19.0144415,18.0002181 19.9523017,17.0258179 19.9523017,15.3815176 C19.9523017,13.7006773 18.8561015,12.7506371 17.3579612,12.7506371 C16.042521,12.7506371 15.3239008,13.2621972 14.9097807,14.5045574 C14.7514407,14.9795775 14.6296407,15.1622776 14.4104006,15.3571576 C14.2277006,15.5033176 14.0206406,15.5885777 13.7405005,15.5885777 C13.3994605,15.5885777 13.0949604,15.4667776 12.8513603,15.2475376 C12.6199403,15.0404776 12.4616003,14.7116175 12.4616003,14.2974974 C12.4616003,13.5179773 12.8879004,12.7262771 13.3751004,12.178177 C14.3616806,11.0454368 15.6405809,10.5095167 17.3579612,10.5095167 Z M29.1603813,26.2947997 C29.1603813,27.2691999 28.3565012,28.07308 27.382101,28.07308 C26.4077008,28.07308 25.6038206,27.2691999 25.6038206,26.2947997 C25.6038206,25.3203995 26.4077008,24.5408793 27.382101,24.5408793 C28.3565012,24.5408793 29.1603813,25.3203995 29.1603813,26.2947997 Z" id="3." fill="#FFFFFF"></path>
                    </g>
                </g>
            </g>
        </g>
    </g>
</svg>