<?xml version="1.0" encoding="UTF-8" standalone="no"?>
<svg width="215px" height="218px" viewBox="0 0 215 218" version="1.1" xmlns="http://www.w3.org/2000/svg" xmlns:xlink="http://www.w3.org/1999/xlink">
    <!-- Generator: Sketch 50.2 (55047) - http://www.bohemiancoding.com/sketch -->
    <title>step4</title>
    <desc>Created with Sketch.</desc>
    <defs>
        <polygon id="path-1" points="0.599100719 0.601684028 149.994964 0.601684028 149.994964 154.998993 0.599100719 154.998993"></polygon>
    </defs>
    <g id="Welcome" stroke="none" stroke-width="1" fill="none" fill-rule="evenodd">
        <g id="Desktop-Copy-5" transform="translate(-889.000000, -7723.000000)">
            <g id="Group-31" transform="translate(-7.000000, 7410.000000)">
                <g id="step4" transform="translate(896.000000, 313.000000)">
                    <path d="M213.930046,104.160573 C199.25536,255.341925 0.500296465,255.217602 0.5,104.160808 C0.499723299,-34.3704858 227.315245,-33.7362778 213.930046,104.160573 Z" id="Shape" fill="#FFFFFF" fill-rule="nonzero" transform="translate(107.500000, 109.000000) rotate(-180.000000) translate(-107.500000, -109.000000) "></path>
                    <g id="lixo" transform="translate(21.000000, 30.000000)">
                        <g id="Group-22">
                            <mask id="mask-2" fill="white">
                                <use xlink:href="#path-1"></use>
                            </mask>
                            <g id="Clip-21"></g>
                        </g>
                        <path d="M49.7796403,101.460512 C49.7292806,102.565634 49.6864748,103.486988 49.6386331,104.54428 C50.4746043,104.587075 51.0940288,104.614766 51.8746043,104.657561 C51.9400719,103.62796 51.9954676,102.746884 52.0558993,101.782734 C51.3181295,101.679523 50.7541007,101.59645 49.7796403,101.460512 Z M31.7609353,101.551137 C31.0231655,101.611554 30.3005036,101.674488 29.4066187,101.755043 C29.5853957,102.840026 29.7289209,103.708516 29.8976259,104.717977 C30.7033813,104.624835 31.3731655,104.546797 32.158777,104.453655 C32.0152518,103.421536 31.9044604,102.598359 31.7609353,101.551137 Z M39.7933094,120.297925 L39.7933094,123.759297 C40.5940288,123.719019 41.2688489,123.688811 41.9235252,123.656085 L41.9235252,120.297925 L39.7933094,120.297925 Z M39.8285612,101.684557 L39.8285612,117.825877 C42.0292806,117.981953 42.0368345,117.981953 42.0544604,116.114071 C42.0720863,114.271363 42.0594964,112.42362 42.0594964,110.583429 L42.0594964,101.684557 L39.8285612,101.684557 Z M30.1066187,107.56763 C30.756259,113.171276 31.3782014,118.533255 32.0127338,124.008516 C32.9217266,123.844887 33.5386331,123.734123 34.3393525,123.583082 C33.722446,118.160686 33.1130935,112.844019 32.4911511,107.414071 C31.6904317,107.464418 31.0609353,107.504696 30.1066187,107.56763 Z M49.6210072,124.026137 C50.2706475,118.334384 50.9026619,112.806259 51.5472662,107.162335 C50.6710072,107.114505 50.0389928,107.079262 49.1853957,107.031432 C48.5382734,112.5948 47.908777,118.057474 47.2666906,123.623359 C48.0397122,123.759297 48.6767626,123.867543 49.6210072,124.026137 Z M29.0490647,136.441762 C26.911295,121.297318 24.806259,106.381953 22.6785612,91.2979253 L58.924964,91.2979253 C56.7972662,106.361814 54.6922302,121.279696 52.5569784,136.391415 L29.0490647,136.441762 Z" id="Fill-23" fill="#00ADEE"></path>
                        <path d="M103.959388,99.7064149 L96.9039928,99.7064149 L96.9039928,101.977075 C96.9014748,111.220825 96.9266547,120.467092 96.8813309,129.710842 C96.866223,133.222561 94.6201799,135.377422 91.3316906,135.231415 C88.8111871,135.115616 86.7313309,133.124384 86.5223381,130.584366 C86.4644245,129.861884 86.4946403,129.131849 86.4946403,128.404332 C86.4921223,108.069089 86.4921223,87.7338455 86.4921223,67.3986024 L86.4921223,64.7201302 C85.9406835,65.638967 85.6208993,66.0895747 85.3842086,66.5829774 C83.8708993,69.654158 82.3701799,72.735408 80.8845683,75.8216927 C79.9881655,77.6769878 78.5428417,78.5656163 76.4705396,78.5555469 C71.4521942,78.5278559 66.4338489,78.5605816 61.4129856,78.5379253 C59.4615468,78.5278559 58.197518,77.3195226 58.192482,75.5649219 C58.1849281,73.8329774 59.4439209,72.6473003 61.4608273,72.6296788 C65.6205396,72.5919184 69.7827698,72.5617101 73.942482,72.6473003 C75.3021942,72.672474 76.0273741,72.2948698 76.6316906,70.9959115 C79.2453597,65.3872309 82.0378058,59.8616233 84.6791727,54.2680469 C85.8173022,51.863967 87.4615468,50.6933941 90.2363669,50.7286372 C98.8881655,50.8368837 107.537446,50.7588455 116.189245,50.7739497 C121.104353,50.7840191 124.533849,53.8652691 124.606871,58.7816753 C124.752914,68.6144878 124.687446,78.4573698 124.65723,88.2901823 C124.652194,90.4450434 123.423417,91.6936545 121.612986,91.6709983 C119.82018,91.6458247 118.73241,90.4223872 118.722338,88.1517274 C118.684568,80.8211719 118.70723,73.4931337 118.702194,66.1625781 L118.702194,63.9498177 L114.51982,63.9498177 L114.51982,66.2884462 C114.51982,87.0214323 114.542482,107.751901 114.474496,128.48237 C114.471978,129.995304 114.167302,131.69704 113.434568,132.985929 C112.236007,135.09296 109.702914,135.757543 107.545,135.030026 C105.316583,134.274818 103.971978,132.331415 103.96946,129.657977 C103.946799,120.615616 103.959388,111.56822 103.959388,102.520825 L103.959388,99.7064149 Z" id="Fill-25" fill="#00ADEE"></path>
                        <path d="M102.956223,23.8882812 C108.327086,23.9411458 112.889676,28.5202257 112.912338,33.8872396 C112.935,39.5261285 108.369892,44.0775174 102.74723,44.0246528 C97.1094604,43.9667535 92.7785252,39.4405382 92.8414748,33.6732639 C92.9019065,28.3616319 97.5752878,23.837934 102.956223,23.8882812" id="Fill-27" fill="#00ADEE"></path>
                        <path d="M49.3347122,72.9423351 C48.0026978,74.2614323 46.1796763,76.0688976 44.475,77.7605642 C42.6444245,75.9405122 40.7584532,74.057526 38.8473022,72.154401 C40.5016187,70.5281858 42.2843525,68.7735851 43.8404676,67.2430295 C45.6181655,69.0882552 47.446223,70.9813108 49.3347122,72.9423351" id="Fill-29" fill="#D8A429"></path>
                        <path d="M23.8401079,84.543342 C25.7588129,82.6754601 27.5919065,80.8931684 29.3066547,79.2266753 C31.0339928,80.9863108 32.8620504,82.8441233 34.7127698,84.7271094 C30.6965827,89.6485503 29.3494604,91.1161719 23.8401079,84.543342" id="Fill-31" fill="#D8A429"></path>
                    </g>
                    <g id="num-1" transform="translate(19.000000, 13.000000)">
                        <g id="certo" fill="#005E81" fill-rule="nonzero">
                                    <!-- <animateTransform begin="0.9s" attributeType="xml" attributeName="transform" type="rotate" from="360 20 20" to="0 20 20" dur="12s" additive="sum" repeatCount="indefinite" /> -->

                            <path d="M0.400849136,28.8575274 C-3.81557835,7.36497568 26.3574428,-13.8509239 38.0886781,11.6638605 C48.8471797,35.0629784 11.1592873,52.2567217 0.400849136,28.8575274 Z" id="Shape"></path>
                        </g>
                        <path d="M18.4176214,26.4044197 L18.4176214,25.3325795 L13.2776604,25.3325795 C12.6808403,25.3325795 12.3154402,25.2716795 11.9987602,25.0158994 C11.7186201,24.8088394 11.5602801,24.4556193 11.5602801,24.0902193 C11.5602801,23.7978992 11.6820801,23.4690391 11.8891402,23.0549191 L17.6015612,11.6057169 C17.8573413,11.0941568 18.0035013,10.9114568 18.2349214,10.7409367 C18.4054414,10.6191367 18.6003214,10.5582367 18.8195615,10.5582367 C19.4042016,10.5582367 19.9888417,11.0332568 19.9888417,11.6544369 C19.9888417,11.934577 19.9157617,12.153817 19.6721616,12.6410171 L14.5078407,22.9940191 L18.4176214,22.9940191 L18.4176214,20.4605786 C18.4176214,19.8637585 18.4541614,19.6445184 18.6003214,19.3521984 C18.7708415,19.0233383 19.1240615,18.7675583 19.6599816,18.7675583 C20.1959017,18.7675583 20.5491218,19.0233383 20.7196418,19.3521984 C20.8658019,19.6445184 20.9023419,19.8637585 20.9023419,20.4605786 L20.9023419,22.9940191 L21.730582,22.9940191 C22.2908621,22.9940191 22.5344622,23.0183791 22.8024222,23.1645391 C23.1191023,23.3472391 23.3383423,23.7004592 23.3383423,24.1632993 C23.3383423,24.6261394 23.1191023,24.9793594 22.8024222,25.1620595 C22.5344622,25.3082195 22.2908621,25.3325795 21.730582,25.3325795 L20.9023419,25.3325795 L20.9023419,26.4044197 C20.9023419,27.0012398 20.8658019,27.2204799 20.7196418,27.5127999 C20.5491218,27.84166 20.1959017,28.09744 19.6599816,28.09744 C19.1240615,28.09744 18.7708415,27.84166 18.6003214,27.5127999 C18.4541614,27.2204799 18.4176214,27.0012398 18.4176214,26.4044197 Z M29.1603813,26.2947997 C29.1603813,27.2691999 28.3565012,28.07308 27.382101,28.07308 C26.4077008,28.07308 25.6038206,27.2691999 25.6038206,26.2947997 C25.6038206,25.3203995 26.4077008,24.5408793 27.382101,24.5408793 C28.3565012,24.5408793 29.1603813,25.3203995 29.1603813,26.2947997 Z" id="4." fill="#FFFFFF"></path>
                    </g>
                </g>
            </g>
        </g>
    </g>
</svg>