<?xml version="1.0" encoding="UTF-8" standalone="no"?>
<svg width="66px" height="67px" viewBox="0 0 66 67" version="1.1" xmlns="http://www.w3.org/2000/svg" xmlns:xlink="http://www.w3.org/1999/xlink">
    <!-- Generator: Sketch 50.2 (55047) - http://www.bohemiancoding.com/sketch -->
    <title>travel</title>
    <desc>Created with Sketch.</desc>
    <defs></defs>
    <g id="Welcome" stroke="none" stroke-width="1" fill="none" fill-rule="evenodd">
        <g id="Desktop-Copy-5" transform="translate(-783.000000, -239.000000)">
            <g id="simbolos" transform="translate(732.000000, 194.000000)">
                <g id="travel" transform="translate(50.348558, 44.716418)">
                    <g id="Group">
                        <g>
                            <path d="M0.685797895,35.4161295 C-0.324138947,17.2816979 13.5610821,1.75956105 31.6919874,0.753855789 C49.8306505,-0.256081053 65.3485558,13.6249084 66.3577874,31.7635716 C67.3656084,49.8980032 53.4832084,65.4173189 35.3480716,66.4265505 C17.21364,67.4364874 1.69361895,53.5519716 0.685797895,35.4161295" id="Fill-35" fill="#FFFFFF"></path>
                            <path d="M41.0276263,29.2829495 C43.2774158,29.1581179 45.4461,29.0375179 47.6690895,28.9126863 C47.6578053,28.7159179 47.6486368,28.5494758 47.6387632,28.38656 C47.5858684,27.4379811 47.5633,26.4851705 47.4744368,25.5436442 C47.3841632,24.6324442 47.2099632,23.7318232 47.0943,22.8248547 C47.0435211,22.4200337 47.0435211,22.0039284 47.0209526,21.5955811 C44.9108053,21.7126547 42.8881105,21.8262021 40.9105526,21.9362232 C40.8837526,23.2402547 40.8534263,24.5033811 40.8365,25.7622758 C40.8308579,26.0725916 40.8668263,26.3829074 40.8837526,26.6967495 C40.9310053,27.5472968 40.9782579,28.3943179 41.0276263,29.2829495 M40.2504263,47.1529074 C39.9633842,47.1416232 39.7003211,47.1493811 39.4393737,47.1225811 C38.6981421,47.0358337 38.1861211,46.5174653 38.1445105,45.7691811 C37.8645211,40.8309284 37.5901737,35.8926758 37.3200579,30.9544232 C37.2805632,30.1793389 37.7834158,29.5777495 38.5697842,29.4754863 C39.0613526,29.4113074 39.5585632,29.4155389 40.0783421,29.3852126 C40.0917421,29.2413389 40.1121947,29.1355495 40.1086684,29.0332863 C40.0353211,27.6686021 40.0896263,26.2771179 39.8385526,24.9462863 C39.6664684,24.0421389 39.5832474,23.1499811 39.5211842,22.2458337 C39.4471316,21.1646653 39.9443421,20.6350126 41.0332684,20.5708337 C42.9297211,20.4692758 44.8219421,20.3627811 46.7183947,20.2569916 C47.7431421,20.2005705 48.3271,20.7224653 48.3898684,21.7507389 C48.4328895,22.45036 48.6282474,23.18736 48.4766158,23.8383179 C48.1211632,25.3659179 48.5746474,26.8512021 48.5069421,28.3527074 C48.4879,28.7723389 48.6296579,28.9423074 49.0718579,28.8746021 C49.4103842,28.8217074 49.7524368,28.8217074 50.0930789,28.8294653 C50.8533526,28.8520337 51.3808895,29.3210337 51.4958474,30.0657916 C51.5240579,30.2322337 51.5395737,30.4022021 51.5466263,30.5764021 C51.8040474,35.1852968 52.0614684,39.7984232 52.3167737,44.4080232 C52.4035211,45.9694758 52.0974368,46.3362126 50.5656053,46.5520232 C50.5070684,46.5633074 50.4520579,46.5894021 50.4033947,46.6049179 C50.3081842,47.5344547 50.1325737,47.7693074 49.5295737,47.7841179 C49.0133211,47.7918758 48.7770579,47.5118863 48.6508158,46.6951916 C46.4461632,46.8200232 44.2358684,46.9413284 42.0255737,47.06616 C41.8351526,48.0796232 41.6856368,48.2644021 41.0769947,48.2495916 C40.6002368,48.2383074 40.3731421,47.9435074 40.2504263,47.1529074" id="Fill-37" fill="#D6A229"></path>
                            <path d="M22.7227326,37.30292 C21.8609011,38.8946989 21.0230484,40.4335832 20.2084695,41.9766989 C20.1344168,42.1163411 20.1873116,42.3660042 20.2613642,42.5359726 C20.7148484,43.6326568 21.2254589,44.7025411 21.6450905,45.8105095 C21.7790905,46.1701937 21.7544063,46.6236779 21.6944589,47.0172147 C21.5978379,47.5842463 21.3234905,47.6554779 20.8812905,47.2704042 C19.6654168,46.2188568 18.4537747,45.1602568 17.2343747,44.1094147 C17.1060168,43.9993937 16.9487432,43.9048884 16.7865326,43.8597516 C15.2547011,43.4168463 13.7179326,42.9824042 12.1825747,42.5472568 C11.5986168,42.3808147 11.4984695,42.1466674 11.9315011,41.7044674 C12.1995011,41.4322358 12.5648274,41.1860989 12.9273326,41.0993516 C14.0070905,40.8574463 15.1115326,40.67972 16.2096274,40.5090463 C16.5009011,40.4674358 16.6786274,40.3806884 16.8203853,40.1126884 C17.6257958,38.5963726 18.4481326,37.0871095 19.29868,35.5178989 C18.9756695,35.4692358 18.69568,35.4311516 18.4156905,35.3782568 C16.0453011,34.9318253 13.6720905,34.5009095 11.3073432,34.0361411 C10.9138063,33.9564463 10.5414274,33.7483937 10.15988,33.5861832 C9.85943789,33.4613516 9.82488,33.2384884 9.92502737,32.9394568 C10.0823011,32.4894989 10.3940274,32.1488568 10.8235326,32.0317832 C11.7481326,31.7785937 12.6945958,31.4795621 13.6424695,31.4308989 C15.9373958,31.31312 18.2421958,31.2983095 20.5413537,31.3060674 C21.3164379,31.31312 21.7663958,31.0980147 22.1176168,30.3645411 C22.7721011,28.9878674 23.5316695,27.6570358 24.2827747,26.3297305 C24.7912695,25.4220568 25.5451958,24.7534674 26.5099958,24.3521726 C27.3986274,23.9819095 28.0107958,24.3599305 28.1447958,25.3092147 C28.2830274,26.3445411 28.1151747,27.3276779 27.6250168,28.2466358 C26.8273642,29.7368568 26.0219537,31.2228463 25.2109011,32.7010779 C25.0917116,32.9168884 25.0825432,33.0642884 25.2257116,33.2871516 C26.4324168,35.1624463 27.6553432,37.0271621 28.7950484,38.9363095 C29.3818274,39.9272042 29.84448,41.0006147 30.2810379,42.0669726 C30.4404274,42.4605095 30.4291432,42.9668884 30.3550905,43.3985095 C30.2627011,43.9768253 29.8839747,44.4528779 29.2153853,43.8971305 C28.2978379,43.1298042 27.3908695,42.3392042 26.5572484,41.4808989 C25.3145747,40.1994358 24.1445432,38.8495621 22.9420695,37.5257832 C22.8856484,37.4658358 22.8249958,37.4051832 22.7227326,37.30292" id="Fill-39" fill="#D6A229"></path>
                        </g>
                    </g>
                </g>
            </g>
        </g>
    </g>
</svg>